# xmcd
#
# Track frame offsets:
#	150
#	12370
#	25830
#	40662
#	57047
#	68987
#	83800
#	96912
#	111335
#	128472
#	143767
#	157910
#	173930
#	188827
#	200605
#	217892
#	231655
#	246045
#	257955
#	273002
#
# Disc length: 3815 seconds
#
# Revision: 1
# Processed by: cddbd v1.5.1PL2 Copyright (c) Steve Scherf et al.
# Submitted via: audiograbber 1.83.01
#
DISCID=120ee514
DTITLE=Various Artist - The Soul Kitchen II
DYEAR=1900
DGENRE=
TTITLE0=Sam Cooke - You Send Me 
TTITLE1=Etta James - At Last 
TTITLE2=Percy Sledge - Warm And Tender Love 
TTITLE3=Billy Stewart - Sittin' In The Park 
TTITLE4=Barbara Lewis - Hello Stranger 
TTITLE5=Eddie Holman - Hey There Lonely 
TTITLE6=Betty Lavette - Let Me Down Easy 
TTITLE7=Joe Simon - Misty Blue 
TTITLE8=Brook Benton - Rainy Night In Georgia 
TTITLE9=Peggy Scott - Every Little Bit Hurts 
TTITLE10=Aaron Neville - Tell It Like It Is 
TTITLE11=Luther Ingram - If Loving You Is Wrong 
TTITLE12=The Ad Libs - Giving Up 
TTITLE13=Jerry Butler - Make It Easy On Yourself 
TTITLE14=Johnny Adams - Reconsider Me 
TTITLE15=Irma Thomas - I've Been Loving You Too Long 
TTITLE16=Bobby Womack - That's The Way I Feel About Cha 
TTITLE17=Glady Knite and The Pips - Either Way I Lose 
TTITLE18=Chuck Johnson - Anyday Now
TTITLE19=Little Milton - Stand By Me
EXTD=
EXTT0=
EXTT1=
EXTT2=
EXTT3=
EXTT4=
EXTT5=
EXTT6=
EXTT7=
EXTT8=
EXTT9=
EXTT10=
EXTT11=
EXTT12=
EXTT13=
EXTT14=
EXTT15=
EXTT16=
EXTT17=
EXTT18=
EXTT19=
PLAYORDER=
